<svg xmlns="http://www.w3.org/2000/svg" width="980" height="520" viewBox="0 0 980 520" role="img">
<rect width="980" height="520" fill="#f8fafc" />
<text x="28" y="34" font-family="Inter, system-ui, Helvetica, sans-serif" font-size="22" font-weight="bold" fill="#0f172a" text-anchor="start">Total Grade Agreement</text>
<text x="28" y="58" font-family="Inter, system-ui, Helvetica, sans-serif" font-size="12.5" font-weight="normal" fill="#475569" text-anchor="start">Separate panels reduce overplotting and make calibration differences easier to compare.</text>
<rect x="28" y="82" width="450" height="400" fill="#ffffff" stroke="#d8dee8" stroke-width="1" rx="10" opacity="1" />
<text x="46" y="108" font-family="Inter, system-ui, Helvetica, sans-serif" font-size="15" font-weight="bold" fill="#0f172a" text-anchor="start">Monitor</text>
<text x="460" y="108" font-family="Inter, system-ui, Helvetica, sans-serif" font-size="11.5" font-weight="normal" fill="#475569" text-anchor="end">MAE 0.452  |  Bias 0.135</text>
<line x1="72.0" y1="440" x2="72.0" y2="124" stroke="#e8edf4" stroke-width="1" opacity="1" />
<line x1="72" y1="440.0" x2="460" y2="440.0" stroke="#e8edf4" stroke-width="1" opacity="1" />
<text x="72.0" y="458" font-family="Inter, system-ui, Helvetica, sans-serif" font-size="10.5" font-weight="normal" fill="#64748b" text-anchor="middle">0</text>
<text x="62" y="444.0" font-family="Inter, system-ui, Helvetica, sans-serif" font-size="10.5" font-weight="normal" fill="#64748b" text-anchor="end">0</text>
<line x1="149.60000000000002" y1="440" x2="149.60000000000002" y2="124" stroke="#e8edf4" stroke-width="1" opacity="1" />
<line x1="72" y1="376.8" x2="460" y2="376.8" stroke="#e8edf4" stroke-width="1" opacity="1" />
<text x="149.60000000000002" y="458" font-family="Inter, system-ui, Helvetica, sans-serif" font-size="10.5" font-weight="normal" fill="#64748b" text-anchor="middle">2</text>
<text x="62" y="380.8" font-family="Inter, system-ui, Helvetica, sans-serif" font-size="10.5" font-weight="normal" fill="#64748b" text-anchor="end">2</text>
<line x1="227.20000000000002" y1="440" x2="227.20000000000002" y2="124" stroke="#e8edf4" stroke-width="1" opacity="1" />
<line x1="72" y1="313.6" x2="460" y2="313.6" stroke="#e8edf4" stroke-width="1" opacity="1" />
<text x="227.20000000000002" y="458" font-family="Inter, system-ui, Helvetica, sans-serif" font-size="10.5" font-weight="normal" fill="#64748b" text-anchor="middle">4</text>
<text x="62" y="317.6" font-family="Inter, system-ui, Helvetica, sans-serif" font-size="10.5" font-weight="normal" fill="#64748b" text-anchor="end">4</text>
<line x1="304.79999999999995" y1="440" x2="304.79999999999995" y2="124" stroke="#e8edf4" stroke-width="1" opacity="1" />
<line x1="72" y1="250.4" x2="460" y2="250.4" stroke="#e8edf4" stroke-width="1" opacity="1" />
<text x="304.79999999999995" y="458" font-family="Inter, system-ui, Helvetica, sans-serif" font-size="10.5" font-weight="normal" fill="#64748b" text-anchor="middle">6</text>
<text x="62" y="254.4" font-family="Inter, system-ui, Helvetica, sans-serif" font-size="10.5" font-weight="normal" fill="#64748b" text-anchor="end">6</text>
<line x1="382.40000000000003" y1="440" x2="382.40000000000003" y2="124" stroke="#e8edf4" stroke-width="1" opacity="1" />
<line x1="72" y1="187.2" x2="460" y2="187.2" stroke="#e8edf4" stroke-width="1" opacity="1" />
<text x="382.40000000000003" y="458" font-family="Inter, system-ui, Helvetica, sans-serif" font-size="10.5" font-weight="normal" fill="#64748b" text-anchor="middle">8</text>
<text x="62" y="191.2" font-family="Inter, system-ui, Helvetica, sans-serif" font-size="10.5" font-weight="normal" fill="#64748b" text-anchor="end">8</text>
<line x1="460.0" y1="440" x2="460.0" y2="124" stroke="#e8edf4" stroke-width="1" opacity="1" />
<line x1="72" y1="124.0" x2="460" y2="124.0" stroke="#e8edf4" stroke-width="1" opacity="1" />
<text x="460.0" y="458" font-family="Inter, system-ui, Helvetica, sans-serif" font-size="10.5" font-weight="normal" fill="#64748b" text-anchor="middle">10</text>
<text x="62" y="128.0" font-family="Inter, system-ui, Helvetica, sans-serif" font-size="10.5" font-weight="normal" fill="#64748b" text-anchor="end">10</text>
<line x1="72" y1="124" x2="72" y2="440" stroke="#8793a6" stroke-width="1.2" opacity="1" />
<line x1="72" y1="440" x2="460" y2="440" stroke="#8793a6" stroke-width="1.2" opacity="1" />
<polygon points="72.0,408.4 81.7,400.5 91.4,392.6 101.1,384.7 110.80000000000001,376.8 120.5,368.9 130.2,361.0 139.89999999999998,353.1 149.60000000000002,345.2 159.3,337.3 169.0,329.4 178.7,321.5 188.39999999999998,313.6 198.10000000000002,305.70000000000005 207.79999999999998,297.79999999999995 217.5,289.9 227.20000000000002,282.0 236.9,274.1 246.6,266.2 256.29999999999995,258.3 266.0,250.4 275.70000000000005,242.5 285.4,234.6 295.1,226.7 304.79999999999995,218.8 314.5,210.9 324.20000000000005,203.0 333.90000000000003,195.1 343.59999999999997,187.2 353.3,179.3 363.0,171.40000000000003 372.7,163.5 382.40000000000003,155.59999999999997 392.09999999999997,147.7 401.8,139.8 411.5,131.90000000000003 421.2,124.0 430.90000000000003,124.0 440.59999999999997,124.0 450.3,124.0 460.0,124.0 460.0,155.59999999999997 450.3,163.5 440.59999999999997,171.40000000000003 430.90000000000003,179.3 421.2,187.2 411.5,195.1 401.8,203.0 392.09999999999997,210.9 382.40000000000003,218.8 372.7,226.7 363.0,234.6 353.3,242.5 343.59999999999997,250.4 333.90000000000003,258.3 324.20000000000005,266.2 314.5,274.1 304.79999999999995,282.0 295.1,289.9 285.4,297.79999999999995 275.70000000000005,305.70000000000005 266.0,313.6 256.29999999999995,321.5 246.6,329.4 236.9,337.3 227.20000000000002,345.2 217.5,353.1 207.79999999999998,361.0 198.10000000000002,368.9 188.39999999999998,376.8 178.7,384.7 169.0,392.6 159.3,400.5 149.60000000000002,408.4 139.89999999999998,416.3 130.2,424.2 120.5,432.1 110.80000000000001,440.0 101.1,440.0 91.4,440.0 81.7,440.0 72.0,440.0" fill="#dbeafe" stroke="none" stroke-width="0" opacity="0.32" />
<polyline points="72.0,440.0 91.4,424.2 110.80000000000001,408.4 130.2,392.6 149.60000000000002,376.8 169.0,361.0 188.39999999999998,345.2 207.79999999999998,329.4 227.20000000000002,313.6 246.6,297.79999999999995 266.0,282.0 285.4,266.2 304.79999999999995,250.4 324.20000000000005,234.6 343.59999999999997,218.8 363.0,203.0 382.40000000000003,187.2 401.8,171.40000000000003 421.2,155.59999999999997 440.59999999999997,139.8 460.0,124.0" fill="none" stroke="#64748b" stroke-width="1.4" opacity="0.82" stroke-dasharray="5 4" />
<circle cx="352.0996008898564" cy="210.76406009895442" r="4.3" fill="#2563eb" stroke="#ffffff" stroke-width="0.7" opacity="0.72" />
<circle cx="400.238566379164" cy="160.23161082666707" r="4.3" fill="#2563eb" stroke="#ffffff" stroke-width="0.7" opacity="0.72" />
<circle cx="385.0893351443669" cy="160.83016686072477" r="4.3" fill="#2563eb" stroke="#ffffff" stroke-width="0.7" opacity="0.72" />
<circle cx="447.2364184511793" cy="137.24626491684856" r="4.3" fill="#2563eb" stroke="#ffffff" stroke-width="0.7" opacity="0.72" />
<circle cx="423.7079674027493" cy="127.09392851547015" r="4.3" fill="#2563eb" stroke="#ffffff" stroke-width="0.7" opacity="0.72" />
<circle cx="436.76786580542915" cy="129.83970696829155" r="4.3" fill="#2563eb" stroke="#ffffff" stroke-width="0.7" opacity="0.72" />
<circle cx="434.1279789901341" cy="134.4617981259772" r="4.3" fill="#2563eb" stroke="#ffffff" stroke-width="0.7" opacity="0.72" />
<circle cx="415.91192767678086" cy="157.36839683266822" r="4.3" fill="#2563eb" stroke="#ffffff" stroke-width="0.7" opacity="0.72" />
<circle cx="444.3332528974447" cy="138.31143231985166" r="4.3" fill="#2563eb" stroke="#ffffff" stroke-width="0.7" opacity="0.72" />
<circle cx="444.82182869886753" cy="131.68485049007555" r="4.3" fill="#2563eb" stroke="#ffffff" stroke-width="0.7" opacity="0.72" />
<circle cx="427.16268883895515" cy="135.2311995383949" r="4.3" fill="#2563eb" stroke="#ffffff" stroke-width="0.7" opacity="0.72" />
<circle cx="372.96100730914236" cy="191.97631266256408" r="4.3" fill="#2563eb" stroke="#ffffff" stroke-width="0.7" opacity="0.72" />
<circle cx="439.3358855667728" cy="128.351994569433" r="4.3" fill="#2563eb" stroke="#ffffff" stroke-width="0.7" opacity="0.72" />
<circle cx="428.33404383608126" cy="132.7510306224137" r="4.3" fill="#2563eb" stroke="#ffffff" stroke-width="0.7" opacity="0.72" />
<circle cx="383.49276448480407" cy="187.39785836572304" r="4.3" fill="#2563eb" stroke="#ffffff" stroke-width="0.7" opacity="0.72" />
<circle cx="293.0398012931401" cy="228.63173263925313" r="4.3" fill="#2563eb" stroke="#ffffff" stroke-width="0.7" opacity="0.72" />
<circle cx="428.44673804908473" cy="148.41152822294973" r="4.3" fill="#2563eb" stroke="#ffffff" stroke-width="0.7" opacity="0.72" />
<circle cx="410.34167065106374" cy="150.58409555538307" r="4.3" fill="#2563eb" stroke="#ffffff" stroke-width="0.7" opacity="0.72" />
<circle cx="450.1272063874228" cy="131.8620833345417" r="4.3" fill="#2563eb" stroke="#ffffff" stroke-width="0.7" opacity="0.72" />
<circle cx="412.97060118744776" cy="166.8606241810912" r="4.3" fill="#2563eb" stroke="#ffffff" stroke-width="0.7" opacity="0.72" />
<circle cx="414.35424430544447" cy="163.30297879756847" r="4.3" fill="#2563eb" stroke="#ffffff" stroke-width="0.7" opacity="0.72" />
<circle cx="400.05640482832905" cy="169.84744424808267" r="4.3" fill="#2563eb" stroke="#ffffff" stroke-width="0.7" opacity="0.72" />
<circle cx="342.073874447281" cy="204.8722681757747" r="4.3" fill="#2563eb" stroke="#ffffff" stroke-width="0.7" opacity="0.72" />
<circle cx="427.749572293553" cy="150.1277451064" r="4.3" fill="#2563eb" stroke="#ffffff" stroke-width="0.7" opacity="0.72" />
<circle cx="441.85906748706424" cy="155.27142109757213" r="4.3" fill="#2563eb" stroke="#ffffff" stroke-width="0.7" opacity="0.72" />
<circle cx="408.7301662103498" cy="133.25872339284192" r="4.3" fill="#2563eb" stroke="#ffffff" stroke-width="0.7" opacity="0.72" />
<circle cx="399.1991688345865" cy="159.51046485730586" r="4.3" fill="#2563eb" stroke="#ffffff" stroke-width="0.7" opacity="0.72" />
<circle cx="417.11622449586406" cy="157.55044039273176" r="4.3" fill="#2563eb" stroke="#ffffff" stroke-width="0.7" opacity="0.72" />
<circle cx="438.15060364098287" cy="131.875681356922" r="4.3" fill="#2563eb" stroke="#ffffff" stroke-width="0.7" opacity="0.72" />
<circle cx="431.14495725518503" cy="144.36349770320734" r="4.3" fill="#2563eb" stroke="#ffffff" stroke-width="0.7" opacity="0.72" />
<circle cx="233.00604417029663" cy="337.5132657290168" r="4.3" fill="#2563eb" stroke="#ffffff" stroke-width="0.7" opacity="0.72" />
<circle cx="436.27826539738385" cy="141.29746205501772" r="4.3" fill="#2563eb" stroke="#ffffff" stroke-width="0.7" opacity="0.72" />
<circle cx="421.0358486244362" cy="156.97652893409162" r="4.3" fill="#2563eb" stroke="#ffffff" stroke-width="0.7" opacity="0.72" />
<circle cx="455.9197644403902" cy="126.19804803059215" r="4.3" fill="#2563eb" stroke="#ffffff" stroke-width="0.7" opacity="0.72" />
<circle cx="209.1963863798116" cy="408.85752858501604" r="4.3" fill="#2563eb" stroke="#ffffff" stroke-width="0.7" opacity="0.72" />
<circle cx="446.25636516810994" cy="127.24962801952204" r="4.3" fill="#2563eb" stroke="#ffffff" stroke-width="0.7" opacity="0.72" />
<circle cx="438.7339160088904" cy="145.49158664281862" r="4.3" fill="#2563eb" stroke="#ffffff" stroke-width="0.7" opacity="0.72" />
<circle cx="431.1984110954651" cy="128.26850481818647" r="4.3" fill="#2563eb" stroke="#ffffff" stroke-width="0.7" opacity="0.72" />
<circle cx="377.221528653634" cy="188.87493819270588" r="4.3" fill="#2563eb" stroke="#ffffff" stroke-width="0.7" opacity="0.72" />
<circle cx="446.66399467089764" cy="125.72291386031843" r="4.3" fill="#2563eb" stroke="#ffffff" stroke-width="0.7" opacity="0.72" />
<circle cx="436.8660254108905" cy="134.84015443064405" r="4.3" fill="#2563eb" stroke="#ffffff" stroke-width="0.7" opacity="0.72" />
<circle cx="440.9649251436563" cy="185.7486715043237" r="4.3" fill="#2563eb" stroke="#ffffff" stroke-width="0.7" opacity="0.72" />
<circle cx="347.3720296995569" cy="214.1820926670795" r="4.3" fill="#2563eb" stroke="#ffffff" stroke-width="0.7" opacity="0.72" />
<circle cx="348.0595357056306" cy="235.67097445632672" r="4.3" fill="#2563eb" stroke="#ffffff" stroke-width="0.7" opacity="0.72" />
<circle cx="444.84600925919466" cy="126.57598755224159" r="4.3" fill="#2563eb" stroke="#ffffff" stroke-width="0.7" opacity="0.72" />
<circle cx="432.92783474805884" cy="139.84250361235846" r="4.3" fill="#2563eb" stroke="#ffffff" stroke-width="0.7" opacity="0.72" />
<circle cx="414.03281532107405" cy="156.10297506510983" r="4.3" fill="#2563eb" stroke="#ffffff" stroke-width="0.7" opacity="0.72" />
<circle cx="391.95175646761953" cy="167.23852418380565" r="4.3" fill="#2563eb" stroke="#ffffff" stroke-width="0.7" opacity="0.72" />
<circle cx="452.0042204072775" cy="150.6864386159348" r="4.3" fill="#2563eb" stroke="#ffffff" stroke-width="0.7" opacity="0.72" />
<circle cx="446.7656685983317" cy="122.31996010568965" r="4.3" fill="#2563eb" stroke="#ffffff" stroke-width="0.7" opacity="0.72" />
<circle cx="436.4447307867595" cy="125.79672526183772" r="4.3" fill="#2563eb" stroke="#ffffff" stroke-width="0.7" opacity="0.72" />
<circle cx="440.5510829624676" cy="122.25440370763934" r="4.3" fill="#2563eb" stroke="#ffffff" stroke-width="0.7" opacity="0.72" />
<circle cx="402.956075334367" cy="141.3314284372501" r="4.3" fill="#2563eb" stroke="#ffffff" stroke-width="0.7" opacity="0.72" />
<circle cx="322.8195319970747" cy="249.22577500227905" r="4.3" fill="#2563eb" stroke="#ffffff" stroke-width="0.7" opacity="0.72" />
<circle cx="441.77682015455224" cy="124.70734881429955" r="4.3" fill="#2563eb" stroke="#ffffff" stroke-width="0.7" opacity="0.72" />
<circle cx="438.8202391542699" cy="130.14559382614988" r="4.3" fill="#2563eb" stroke="#ffffff" stroke-width="0.7" opacity="0.72" />
<circle cx="380.88801657912177" cy="193.1451739775856" r="4.3" fill="#2563eb" stroke="#ffffff" stroke-width="0.7" opacity="0.72" />
<circle cx="428.952855012848" cy="137.52904942697188" r="4.3" fill="#2563eb" stroke="#ffffff" stroke-width="0.7" opacity="0.72" />
<circle cx="420.93028616318895" cy="132.1597644827001" r="4.3" fill="#2563eb" stroke="#ffffff" stroke-width="0.7" opacity="0.72" />
<circle cx="415.865356757436" cy="163.5481114651532" r="4.3" fill="#2563eb" stroke="#ffffff" stroke-width="0.7" opacity="0.72" />
<circle cx="425.26469898752595" cy="156.97607837684836" r="4.3" fill="#2563eb" stroke="#ffffff" stroke-width="0.7" opacity="0.72" />
<circle cx="418.940087211046" cy="138.41311330540654" r="4.3" fill="#2563eb" stroke="#ffffff" stroke-width="0.7" opacity="0.72" />
<circle cx="403.5993200977599" cy="154.00330399001612" r="4.3" fill="#2563eb" stroke="#ffffff" stroke-width="0.7" opacity="0.72" />
<circle cx="424.8007398167098" cy="178.99114713167307" r="4.3" fill="#2563eb" stroke="#ffffff" stroke-width="0.7" opacity="0.72" />
<circle cx="452.4988237458592" cy="135.81312702849755" r="4.3" fill="#2563eb" stroke="#ffffff" stroke-width="0.7" opacity="0.72" />
<circle cx="427.5998610429048" cy="184.34536878487944" r="4.3" fill="#2563eb" stroke="#ffffff" stroke-width="0.7" opacity="0.72" />
<circle cx="443.3384777227752" cy="130.56465687982805" r="4.3" fill="#2563eb" stroke="#ffffff" stroke-width="0.7" opacity="0.72" />
<circle cx="430.0073903118252" cy="139.0281684349419" r="4.3" fill="#2563eb" stroke="#ffffff" stroke-width="0.7" opacity="0.72" />
<circle cx="405.19396418244986" cy="150.5069170972495" r="4.3" fill="#2563eb" stroke="#ffffff" stroke-width="0.7" opacity="0.72" />
<circle cx="453.38771705981685" cy="135.07259156234088" r="4.3" fill="#2563eb" stroke="#ffffff" stroke-width="0.7" opacity="0.72" />
<circle cx="450.48274124706" cy="157.36150365765602" r="4.3" fill="#2563eb" stroke="#ffffff" stroke-width="0.7" opacity="0.72" />
<circle cx="419.7581493240559" cy="122.20892575764826" r="4.3" fill="#2563eb" stroke="#ffffff" stroke-width="0.7" opacity="0.72" />
<circle cx="331.0882308920749" cy="226.77335829588424" r="4.3" fill="#2563eb" stroke="#ffffff" stroke-width="0.7" opacity="0.72" />
<circle cx="337.63229267856275" cy="207.9587814972044" r="4.3" fill="#2563eb" stroke="#ffffff" stroke-width="0.7" opacity="0.72" />
<circle cx="416.95244394839835" cy="131.26194075188093" r="4.3" fill="#2563eb" stroke="#ffffff" stroke-width="0.7" opacity="0.72" />
<circle cx="379.766185791763" cy="148.84531436882511" r="4.3" fill="#2563eb" stroke="#ffffff" stroke-width="0.7" opacity="0.72" />
<circle cx="378.2498143520068" cy="155.4868308247238" r="4.3" fill="#2563eb" stroke="#ffffff" stroke-width="0.7" opacity="0.72" />
<circle cx="446.27850429101824" cy="143.6104539683151" r="4.3" fill="#2563eb" stroke="#ffffff" stroke-width="0.7" opacity="0.72" />
<circle cx="409.2295251578744" cy="138.6730137108051" r="4.3" fill="#2563eb" stroke="#ffffff" stroke-width="0.7" opacity="0.72" />
<circle cx="446.5862562590259" cy="125.4982579667526" r="4.3" fill="#2563eb" stroke="#ffffff" stroke-width="0.7" opacity="0.72" />
<circle cx="404.2022908851463" cy="157.0304078145167" r="4.3" fill="#2563eb" stroke="#ffffff" stroke-width="0.7" opacity="0.72" />
<circle cx="358.82667126263146" cy="188.99938230392246" r="4.3" fill="#2563eb" stroke="#ffffff" stroke-width="0.7" opacity="0.72" />
<circle cx="426.02286217418197" cy="157.05889008266595" r="4.3" fill="#2563eb" stroke="#ffffff" stroke-width="0.7" opacity="0.72" />
<circle cx="421.61517712920613" cy="217.08395367743094" r="4.3" fill="#2563eb" stroke="#ffffff" stroke-width="0.7" opacity="0.72" />
<text x="253.0" y="472" font-family="Inter, system-ui, Helvetica, sans-serif" font-size="11.5" font-weight="normal" fill="#334155" text-anchor="middle">Expert reference (0-10)</text>
<text x="43" y="294.0" font-family="Inter, system-ui, Helvetica, sans-serif" font-size="11.5" font-weight="normal" fill="#334155" text-anchor="middle" transform="rotate(-90 43 294.0)">Assigned grade</text>
<rect x="502" y="82" width="450" height="400" fill="#ffffff" stroke="#d8dee8" stroke-width="1" rx="10" opacity="1" />
<text x="520" y="108" font-family="Inter, system-ui, Helvetica, sans-serif" font-size="15" font-weight="bold" fill="#0f172a" text-anchor="start">LLM</text>
<text x="934" y="108" font-family="Inter, system-ui, Helvetica, sans-serif" font-size="11.5" font-weight="normal" fill="#475569" text-anchor="end">MAE 1.604  |  Bias -1.598</text>
<line x1="546.0" y1="440" x2="546.0" y2="124" stroke="#e8edf4" stroke-width="1" opacity="1" />
<line x1="546" y1="440.0" x2="934" y2="440.0" stroke="#e8edf4" stroke-width="1" opacity="1" />
<text x="546.0" y="458" font-family="Inter, system-ui, Helvetica, sans-serif" font-size="10.5" font-weight="normal" fill="#64748b" text-anchor="middle">0</text>
<text x="536" y="444.0" font-family="Inter, system-ui, Helvetica, sans-serif" font-size="10.5" font-weight="normal" fill="#64748b" text-anchor="end">0</text>
<line x1="623.6" y1="440" x2="623.6" y2="124" stroke="#e8edf4" stroke-width="1" opacity="1" />
<line x1="546" y1="376.8" x2="934" y2="376.8" stroke="#e8edf4" stroke-width="1" opacity="1" />
<text x="623.6" y="458" font-family="Inter, system-ui, Helvetica, sans-serif" font-size="10.5" font-weight="normal" fill="#64748b" text-anchor="middle">2</text>
<text x="536" y="380.8" font-family="Inter, system-ui, Helvetica, sans-serif" font-size="10.5" font-weight="normal" fill="#64748b" text-anchor="end">2</text>
<line x1="701.2" y1="440" x2="701.2" y2="124" stroke="#e8edf4" stroke-width="1" opacity="1" />
<line x1="546" y1="313.6" x2="934" y2="313.6" stroke="#e8edf4" stroke-width="1" opacity="1" />
<text x="701.2" y="458" font-family="Inter, system-ui, Helvetica, sans-serif" font-size="10.5" font-weight="normal" fill="#64748b" text-anchor="middle">4</text>
<text x="536" y="317.6" font-family="Inter, system-ui, Helvetica, sans-serif" font-size="10.5" font-weight="normal" fill="#64748b" text-anchor="end">4</text>
<line x1="778.8" y1="440" x2="778.8" y2="124" stroke="#e8edf4" stroke-width="1" opacity="1" />
<line x1="546" y1="250.4" x2="934" y2="250.4" stroke="#e8edf4" stroke-width="1" opacity="1" />
<text x="778.8" y="458" font-family="Inter, system-ui, Helvetica, sans-serif" font-size="10.5" font-weight="normal" fill="#64748b" text-anchor="middle">6</text>
<text x="536" y="254.4" font-family="Inter, system-ui, Helvetica, sans-serif" font-size="10.5" font-weight="normal" fill="#64748b" text-anchor="end">6</text>
<line x1="856.4000000000001" y1="440" x2="856.4000000000001" y2="124" stroke="#e8edf4" stroke-width="1" opacity="1" />
<line x1="546" y1="187.2" x2="934" y2="187.2" stroke="#e8edf4" stroke-width="1" opacity="1" />
<text x="856.4000000000001" y="458" font-family="Inter, system-ui, Helvetica, sans-serif" font-size="10.5" font-weight="normal" fill="#64748b" text-anchor="middle">8</text>
<text x="536" y="191.2" font-family="Inter, system-ui, Helvetica, sans-serif" font-size="10.5" font-weight="normal" fill="#64748b" text-anchor="end">8</text>
<line x1="934.0" y1="440" x2="934.0" y2="124" stroke="#e8edf4" stroke-width="1" opacity="1" />
<line x1="546" y1="124.0" x2="934" y2="124.0" stroke="#e8edf4" stroke-width="1" opacity="1" />
<text x="934.0" y="458" font-family="Inter, system-ui, Helvetica, sans-serif" font-size="10.5" font-weight="normal" fill="#64748b" text-anchor="middle">10</text>
<text x="536" y="128.0" font-family="Inter, system-ui, Helvetica, sans-serif" font-size="10.5" font-weight="normal" fill="#64748b" text-anchor="end">10</text>
<line x1="546" y1="124" x2="546" y2="440" stroke="#8793a6" stroke-width="1.2" opacity="1" />
<line x1="546" y1="440" x2="934" y2="440" stroke="#8793a6" stroke-width="1.2" opacity="1" />
<polygon points="546.0,408.4 555.7,400.5 565.4,392.6 575.1,384.7 584.8,376.8 594.5,368.9 604.2,361.0 613.9,353.1 623.6,345.2 633.3,337.3 643.0,329.4 652.7,321.5 662.4,313.6 672.1,305.70000000000005 681.8,297.79999999999995 691.5,289.9 701.2,282.0 710.9,274.1 720.6,266.2 730.3,258.3 740.0,250.4 749.7,242.5 759.4,234.6 769.1,226.7 778.8,218.8 788.5,210.9 798.2,203.0 807.9000000000001,195.1 817.5999999999999,187.2 827.3,179.3 837.0,171.40000000000003 846.7,163.5 856.4000000000001,155.59999999999997 866.0999999999999,147.7 875.8,139.8 885.5,131.90000000000003 895.2,124.0 904.9000000000001,124.0 914.5999999999999,124.0 924.3,124.0 934.0,124.0 934.0,155.59999999999997 924.3,163.5 914.5999999999999,171.40000000000003 904.9000000000001,179.3 895.2,187.2 885.5,195.1 875.8,203.0 866.0999999999999,210.9 856.4000000000001,218.8 846.7,226.7 837.0,234.6 827.3,242.5 817.5999999999999,250.4 807.9000000000001,258.3 798.2,266.2 788.5,274.1 778.8,282.0 769.1,289.9 759.4,297.79999999999995 749.7,305.70000000000005 740.0,313.6 730.3,321.5 720.6,329.4 710.9,337.3 701.2,345.2 691.5,353.1 681.8,361.0 672.1,368.9 662.4,376.8 652.7,384.7 643.0,392.6 633.3,400.5 623.6,408.4 613.9,416.3 604.2,424.2 594.5,432.1 584.8,440.0 575.1,440.0 565.4,440.0 555.7,440.0 546.0,440.0" fill="#dbeafe" stroke="none" stroke-width="0" opacity="0.32" />
<polyline points="546.0,440.0 565.4,424.2 584.8,408.4 604.2,392.6 623.6,376.8 643.0,361.0 662.4,345.2 681.8,329.4 701.2,313.6 720.6,297.79999999999995 740.0,282.0 759.4,266.2 778.8,250.4 798.2,234.6 817.5999999999999,218.8 837.0,203.0 856.4000000000001,187.2 875.8,171.40000000000003 895.2,155.59999999999997 914.5999999999999,139.8 934.0,124.0" fill="none" stroke="#64748b" stroke-width="1.4" opacity="0.82" stroke-dasharray="5 4" />
<circle cx="826.0996008898564" cy="249.47406009895442" r="4.3" fill="#db2777" stroke="#ffffff" stroke-width="0.7" opacity="0.72" />
<circle cx="874.238566379164" cy="195.78161082666705" r="4.3" fill="#db2777" stroke="#ffffff" stroke-width="0.7" opacity="0.72" />
<circle cx="859.0893351443668" cy="230.35016686072484" r="4.3" fill="#db2777" stroke="#ffffff" stroke-width="0.7" opacity="0.72" />
<circle cx="921.2364184511794" cy="163.31626491684855" r="4.3" fill="#db2777" stroke="#ffffff" stroke-width="0.7" opacity="0.72" />
<circle cx="897.7079674027494" cy="198.98392851547015" r="4.3" fill="#db2777" stroke="#ffffff" stroke-width="0.7" opacity="0.72" />
<circle cx="910.7678658054291" cy="166.17970696829158" r="4.3" fill="#db2777" stroke="#ffffff" stroke-width="0.7" opacity="0.72" />
<circle cx="908.1279789901341" cy="157.37179812597716" r="4.3" fill="#db2777" stroke="#ffffff" stroke-width="0.7" opacity="0.72" />
<circle cx="889.9119276767808" cy="167.63839683266826" r="4.3" fill="#db2777" stroke="#ffffff" stroke-width="0.7" opacity="0.72" />
<circle cx="918.3332528974447" cy="180.18143231985167" r="4.3" fill="#db2777" stroke="#ffffff" stroke-width="0.7" opacity="0.72" />
<circle cx="918.8218286988676" cy="180.6648504900755" r="4.3" fill="#db2777" stroke="#ffffff" stroke-width="0.7" opacity="0.72" />
<circle cx="901.1626888389552" cy="167.62119953839488" r="4.3" fill="#db2777" stroke="#ffffff" stroke-width="0.7" opacity="0.72" />
<circle cx="846.9610073091424" cy="240.9563126625641" r="4.3" fill="#db2777" stroke="#ffffff" stroke-width="0.7" opacity="0.72" />
<circle cx="913.3358855667727" cy="205.771994569433" r="4.3" fill="#db2777" stroke="#ffffff" stroke-width="0.7" opacity="0.72" />
<circle cx="902.3340438360813" cy="195.1610306224137" r="4.3" fill="#db2777" stroke="#ffffff" stroke-width="0.7" opacity="0.72" />
<circle cx="857.4927644848041" cy="240.32785836572302" r="4.3" fill="#db2777" stroke="#ffffff" stroke-width="0.7" opacity="0.72" />
<circle cx="767.0398012931402" cy="361.35173263925316" r="4.3" fill="#db2777" stroke="#ffffff" stroke-width="0.7" opacity="0.72" />
<circle cx="902.4467380490846" cy="187.9115282229497" r="4.3" fill="#db2777" stroke="#ffffff" stroke-width="0.7" opacity="0.72" />
<circle cx="884.3416706510637" cy="205.09409555538306" r="4.3" fill="#db2777" stroke="#ffffff" stroke-width="0.7" opacity="0.72" />
<circle cx="924.1272063874228" cy="183.21208333454172" r="4.3" fill="#db2777" stroke="#ffffff" stroke-width="0.7" opacity="0.72" />
<circle cx="886.9706011874478" cy="200.04062418109115" r="4.3" fill="#db2777" stroke="#ffffff" stroke-width="0.7" opacity="0.72" />
<circle cx="888.3542443054445" cy="218.6029787975684" r="4.3" fill="#db2777" stroke="#ffffff" stroke-width="0.7" opacity="0.72" />
<circle cx="874.056404828329" cy="220.40744424808267" r="4.3" fill="#db2777" stroke="#ffffff" stroke-width="0.7" opacity="0.72" />
<circle cx="816.073874447281" cy="307.5722681757747" r="4.3" fill="#db2777" stroke="#ffffff" stroke-width="0.7" opacity="0.72" />
<circle cx="901.749572293553" cy="170.66774510639996" r="4.3" fill="#db2777" stroke="#ffffff" stroke-width="0.7" opacity="0.72" />
<circle cx="915.8590674870642" cy="192.40142109757218" r="4.3" fill="#db2777" stroke="#ffffff" stroke-width="0.7" opacity="0.72" />
<circle cx="882.7301662103498" cy="194.08872339284187" r="4.3" fill="#db2777" stroke="#ffffff" stroke-width="0.7" opacity="0.72" />
<circle cx="873.1991688345864" cy="229.82046485730586" r="4.3" fill="#db2777" stroke="#ffffff" stroke-width="0.7" opacity="0.72" />
<circle cx="891.116224495864" cy="232.60044039273174" r="4.3" fill="#db2777" stroke="#ffffff" stroke-width="0.7" opacity="0.72" />
<circle cx="912.1506036409829" cy="182.435681356922" r="4.3" fill="#db2777" stroke="#ffffff" stroke-width="0.7" opacity="0.72" />
<circle cx="905.1449572551851" cy="195.71349770320734" r="4.3" fill="#db2777" stroke="#ffffff" stroke-width="0.7" opacity="0.72" />
<circle cx="707.0060441702966" cy="389.65326572901677" r="4.3" fill="#db2777" stroke="#ffffff" stroke-width="0.7" opacity="0.72" />
<circle cx="910.2782653973838" cy="177.63746205501775" r="4.3" fill="#db2777" stroke="#ffffff" stroke-width="0.7" opacity="0.72" />
<circle cx="895.0358486244362" cy="227.28652893409165" r="4.3" fill="#db2777" stroke="#ffffff" stroke-width="0.7" opacity="0.72" />
<circle cx="929.9197644403903" cy="165.69804803059216" r="4.3" fill="#db2777" stroke="#ffffff" stroke-width="0.7" opacity="0.72" />
<circle cx="683.1963863798115" cy="321.95752858501606" r="4.3" fill="#db2777" stroke="#ffffff" stroke-width="0.7" opacity="0.72" />
<circle cx="920.25636516811" cy="192.02962801952202" r="4.3" fill="#db2777" stroke="#ffffff" stroke-width="0.7" opacity="0.72" />
<circle cx="912.7339160088904" cy="195.26158664281863" r="4.3" fill="#db2777" stroke="#ffffff" stroke-width="0.7" opacity="0.72" />
<circle cx="905.1984110954651" cy="185.9385048181865" r="4.3" fill="#db2777" stroke="#ffffff" stroke-width="0.7" opacity="0.72" />
<circle cx="851.2215286536339" cy="233.9049381927059" r="4.3" fill="#db2777" stroke="#ffffff" stroke-width="0.7" opacity="0.72" />
<circle cx="920.6639946708976" cy="186.55291386031848" r="4.3" fill="#db2777" stroke="#ffffff" stroke-width="0.7" opacity="0.72" />
<circle cx="910.8660254108905" cy="179.87015443064402" r="4.3" fill="#db2777" stroke="#ffffff" stroke-width="0.7" opacity="0.72" />
<circle cx="914.9649251436563" cy="275.80867150432374" r="4.3" fill="#db2777" stroke="#ffffff" stroke-width="0.7" opacity="0.72" />
<circle cx="821.372029699557" cy="315.3020926670795" r="4.3" fill="#db2777" stroke="#ffffff" stroke-width="0.7" opacity="0.72" />
<circle cx="822.0595357056307" cy="260.16097445632676" r="4.3" fill="#db2777" stroke="#ffffff" stroke-width="0.7" opacity="0.72" />
<circle cx="918.8460092591947" cy="170.81598755224158" r="4.3" fill="#db2777" stroke="#ffffff" stroke-width="0.7" opacity="0.72" />
<circle cx="906.9278347480588" cy="208.57250361235845" r="4.3" fill="#db2777" stroke="#ffffff" stroke-width="0.7" opacity="0.72" />
<circle cx="888.032815321074" cy="174.27297506510985" r="4.3" fill="#db2777" stroke="#ffffff" stroke-width="0.7" opacity="0.72" />
<circle cx="865.9517564676196" cy="254.13852418380566" r="4.3" fill="#db2777" stroke="#ffffff" stroke-width="0.7" opacity="0.72" />
<circle cx="926.0042204072774" cy="162.53643861593477" r="4.3" fill="#db2777" stroke="#ffffff" stroke-width="0.7" opacity="0.72" />
<circle cx="920.7656685983318" cy="162.1359601056896" r="4.3" fill="#db2777" stroke="#ffffff" stroke-width="0.7" opacity="0.72" />
<circle cx="910.4447307867595" cy="198.47672526183771" r="4.3" fill="#db2777" stroke="#ffffff" stroke-width="0.7" opacity="0.72" />
<circle cx="914.5510829624675" cy="192.56440370763931" r="4.3" fill="#db2777" stroke="#ffffff" stroke-width="0.7" opacity="0.72" />
<circle cx="876.9560753343669" cy="219.5414284372501" r="4.3" fill="#db2777" stroke="#ffffff" stroke-width="0.7" opacity="0.72" />
<circle cx="796.8195319970747" cy="333.75577500227905" r="4.3" fill="#db2777" stroke="#ffffff" stroke-width="0.7" opacity="0.72" />
<circle cx="915.7768201545523" cy="168.15734881429955" r="4.3" fill="#db2777" stroke="#ffffff" stroke-width="0.7" opacity="0.72" />
<circle cx="912.8202391542699" cy="201.4035938261499" r="4.3" fill="#db2777" stroke="#ffffff" stroke-width="0.7" opacity="0.72" />
<circle cx="854.8880165791218" cy="270.5651739775857" r="4.3" fill="#db2777" stroke="#ffffff" stroke-width="0.7" opacity="0.72" />
<circle cx="902.9528550128481" cy="179.39904942697189" r="4.3" fill="#db2777" stroke="#ffffff" stroke-width="0.7" opacity="0.72" />
<circle cx="894.930286163189" cy="224.58976448270008" r="4.3" fill="#db2777" stroke="#ffffff" stroke-width="0.7" opacity="0.72" />
<circle cx="889.8653567574361" cy="203.83811146515322" r="4.3" fill="#db2777" stroke="#ffffff" stroke-width="0.7" opacity="0.72" />
<circle cx="899.264698987526" cy="240.71607837684837" r="4.3" fill="#db2777" stroke="#ffffff" stroke-width="0.7" opacity="0.72" />
<circle cx="892.9400872110459" cy="209.51311330540656" r="4.3" fill="#db2777" stroke="#ffffff" stroke-width="0.7" opacity="0.72" />
<circle cx="877.5993200977599" cy="202.19330399001618" r="4.3" fill="#db2777" stroke="#ffffff" stroke-width="0.7" opacity="0.72" />
<circle cx="898.8007398167098" cy="225.60114713167312" r="4.3" fill="#db2777" stroke="#ffffff" stroke-width="0.7" opacity="0.72" />
<circle cx="926.4988237458592" cy="166.62312702849755" r="4.3" fill="#db2777" stroke="#ffffff" stroke-width="0.7" opacity="0.72" />
<circle cx="901.5998610429048" cy="209.6253687848794" r="4.3" fill="#db2777" stroke="#ffffff" stroke-width="0.7" opacity="0.72" />
<circle cx="917.3384777227752" cy="182.70465687982804" r="4.3" fill="#db2777" stroke="#ffffff" stroke-width="0.7" opacity="0.72" />
<circle cx="904.0073903118252" cy="197.48816843494188" r="4.3" fill="#db2777" stroke="#ffffff" stroke-width="0.7" opacity="0.72" />
<circle cx="879.1939641824499" cy="210.54691709724946" r="4.3" fill="#db2777" stroke="#ffffff" stroke-width="0.7" opacity="0.72" />
<circle cx="927.387717059817" cy="158.77259156234086" r="4.3" fill="#db2777" stroke="#ffffff" stroke-width="0.7" opacity="0.72" />
<circle cx="924.48274124706" cy="208.71150365765604" r="4.3" fill="#db2777" stroke="#ffffff" stroke-width="0.7" opacity="0.72" />
<circle cx="893.7581493240559" cy="190.1489257576483" r="4.3" fill="#db2777" stroke="#ffffff" stroke-width="0.7" opacity="0.72" />
<circle cx="805.0882308920749" cy="318.41335829588417" r="4.3" fill="#db2777" stroke="#ffffff" stroke-width="0.7" opacity="0.72" />
<circle cx="811.6322926785627" cy="232.44878149720438" r="4.3" fill="#db2777" stroke="#ffffff" stroke-width="0.7" opacity="0.72" />
<circle cx="890.9524439483984" cy="203.94194075188094" r="4.3" fill="#db2777" stroke="#ffffff" stroke-width="0.7" opacity="0.72" />
<circle cx="853.766185791763" cy="198.6153143688251" r="4.3" fill="#db2777" stroke="#ffffff" stroke-width="0.7" opacity="0.72" />
<circle cx="852.2498143520068" cy="273.9868308247238" r="4.3" fill="#db2777" stroke="#ffffff" stroke-width="0.7" opacity="0.72" />
<circle cx="920.2785042910183" cy="209.97045396831513" r="4.3" fill="#db2777" stroke="#ffffff" stroke-width="0.7" opacity="0.72" />
<circle cx="883.2295251578744" cy="267.4430137108051" r="4.3" fill="#db2777" stroke="#ffffff" stroke-width="0.7" opacity="0.72" />
<circle cx="920.586256259026" cy="177.6382579667526" r="4.3" fill="#db2777" stroke="#ffffff" stroke-width="0.7" opacity="0.72" />
<circle cx="878.2022908851463" cy="224.1804078145167" r="4.3" fill="#db2777" stroke="#ffffff" stroke-width="0.7" opacity="0.72" />
<circle cx="832.8266712626315" cy="264.8393823039225" r="4.3" fill="#db2777" stroke="#ffffff" stroke-width="0.7" opacity="0.72" />
<circle cx="900.0228621741819" cy="219.46889008266595" r="4.3" fill="#db2777" stroke="#ffffff" stroke-width="0.7" opacity="0.72" />
<circle cx="895.6151771292061" cy="233.67395367743094" r="4.3" fill="#db2777" stroke="#ffffff" stroke-width="0.7" opacity="0.72" />
<text x="727.0" y="472" font-family="Inter, system-ui, Helvetica, sans-serif" font-size="11.5" font-weight="normal" fill="#334155" text-anchor="middle">Expert reference (0-10)</text>
<text x="517" y="294.0" font-family="Inter, system-ui, Helvetica, sans-serif" font-size="11.5" font-weight="normal" fill="#334155" text-anchor="middle" transform="rotate(-90 517 294.0)">Assigned grade</text>
<text x="490" y="506" font-family="Inter, system-ui, Helvetica, sans-serif" font-size="11" font-weight="normal" fill="#64748b" text-anchor="middle">Dashed line = perfect agreement; shaded band = ±1 point around the expert reference.</text>
</svg>